<svg version="1.0" xmlns="http://www.w3.org/2000/svg"
 width="32.000000pt" height="32.000000pt" viewBox="0 0 512.000000 512.000000"
 preserveAspectRatio="xMidYMid meet">
<g transform="translate(0.000000,512.000000) scale(0.100000,-0.100000)"
fill="#02BC7D" stroke="none">
<path d="M2370 5113 c-371 -35 -653 -114 -961 -269 -406 -203 -782 -548 -1029
-944 -179 -286 -309 -655 -362 -1025 -17 -118 -17 -512 0 -630 42 -295 120
-553 242 -800 137 -280 272 -468 494 -691 221 -220 412 -357 681 -489 188 -92
309 -137 500 -185 500 -126 1002 -102 1490 71 149 53 407 182 540 271 365 243
667 578 866 963 181 348 271 694 286 1090 15 426 -73 832 -263 1214 -124 250
-263 447 -458 648 -216 224 -428 378 -711 518 -296 146 -572 225 -900 255
-102 9 -333 11 -415 3z m1555 -1487 c56 -26 119 -90 143 -145 8 -20 16 -65 16
-101 2 -125 37 -84 -901 -1021 -584 -582 -860 -852 -888 -864 -22 -11 -70 -21
-107 -23 -127 -8 -122 -12 -645 511 -511 511 -506 505 -507 627 -1 156 113
270 270 270 117 0 127 -7 519 -400 l350 -350 745 744 c817 815 769 774 895
775 43 1 74 -6 110 -23z"/>
</g>
</svg>